Coordinates
version=1
nRows=5
nColumns=40
inDegrees=yes

Units are S.I. units (second, meters, Newtons, ...)
Angles are in degrees.

endheader
time	pelvis_tilt	pelvis_list	pelvis_rotation	pelvis_tx	pelvis_ty	pelvis_tz	hip_flexion_r	hip_adduction_r	hip_rotation_r	knee_angle_r	knee_angle_r_beta	ankle_angle_r	subtalar_angle_r	mtp_angle_r	hip_flexion_l	hip_adduction_l	hip_rotation_l	knee_angle_l	knee_angle_l_beta	ankle_angle_l	subtalar_angle_l	mtp_angle_l	lumbar_extension	lumbar_bending	lumbar_rotation	arm_flex_r	arm_add_r	arm_rot_r	elbow_flex_r	pro_sup_r	wrist_flex_r	wrist_dev_r	arm_flex_l	arm_add_l	arm_rot_l	elbow_flex_l	pro_sup_l	wrist_flex_l	wrist_dev_l
     27.23000000	     -2.10698389	     -4.85384387	    -10.48426462	      0.94741549	      0.92668859	      0.44363373	     26.79548654	     -1.88016689	     -8.29922592	     23.61182412	     23.61182412	      2.31872379	     -1.84805254	      1.14700103	      3.61949195	     -2.40682901	     -9.45332025	     21.13978964	     21.13978964	     20.96550172	    -14.13527795	      3.84406075	    -11.29577961	      7.80666018	      0.75262433	    -17.83792782	    -13.58382301	    -14.17021378	     27.87658588	     47.08010608	      0.00000000	      0.00000000	     33.07599258	    -20.95005991	     -4.76783825	     71.91210154	     47.39376047	      0.00000000	      0.00000000
     27.24885714	     -2.10844636	     -4.58182879	    -10.73277066	      0.94759898	      0.92566096	      0.44659465	     26.45284353	     -1.89975918	     -8.97497712	     22.54696726	     22.54696726	      2.27522421	      0.27164817	      1.19599081	      2.94533793	     -2.29823577	    -10.21748162	     20.69525922	     20.69525922	     21.03361965	    -13.33764272	      2.74465970	    -11.22959351	      7.52618842	      0.68521946	    -18.93509107	    -13.37841549	    -14.77608355	     28.94129547	     47.04285111	      0.00000000	      0.00000000	     33.48625585	    -21.13151024	     -5.67959754	     74.29011805	     47.51510946	      0.00000000	      0.00000000
     27.26771429	     -2.10971874	     -4.42136298	    -10.93392607	      0.94800478	      0.92462244	      0.44973348	     25.95955757	     -1.69910394	     -9.21369509	     21.65222247	     21.65222247	      2.18269090	      1.18937948	      1.21094722	      2.26823746	     -2.24645848	    -10.61040119	     20.30056008	     20.30056008	     21.25174022	    -12.94950521	      2.33851659	    -11.08611344	      7.39392693	      0.72150303	    -19.47428188	    -13.21688832	    -14.94257158	     29.15206210	     47.03046809	      0.00000000	      0.00000000	     34.14227812	    -21.16469798	     -6.12151237	     75.43369072	     47.57495048	      0.00000000	      0.00000000
     27.28657143	     -2.09418375	     -4.20402866	    -11.12506849	      0.94868867	      0.92326891	      0.45294121	     25.59420447	     -1.65339587	     -9.49753690	     21.39819046	     21.39819046	      2.29481491	      1.92369318	      0.59346288	      1.59886333	     -2.16760154	    -11.16495819	     19.97922726	     19.97922726	     21.48816984	    -12.35550581	      1.59899848	    -10.98241318	      7.24778277	      0.77553682	    -19.90277741	    -13.04933513	    -15.27012010	     29.75868552	     47.00556157	      0.00000000	      0.00000000	     34.50884735	    -21.03782915	     -6.93905653	     77.14877896	     47.67140688	      0.00000000	      0.00000000
     27.30542857	     -2.25028945	     -4.04795823	    -11.25493410	      0.94945784	      0.92171251	      0.45631920	     25.39628097	     -1.47839239	     -9.46769403	     21.40938033	     21.40938033	      2.65119530	      1.91791657	      0.42088483	      1.24341259	     -2.14868372	    -11.23997004	     19.91844853	     19.91844853	     21.82244231	    -12.41174887	      1.45898958	    -10.56309759	      7.24299960	      0.71101233	    -19.82177733	    -12.98587539	    -15.28448999	     29.84226742	     47.00222443	      0.00000000	      0.00000000	     34.89709916	    -21.09046819	     -7.04314455	     77.41297901	     47.68612642	      0.00000000	      0.00000000
